<?xml version="1.0" encoding="UTF-8" standalone="no"?><svg xmlns="http://www.w3.org/2000/svg" xmlns:xlink="http://www.w3.org/1999/xlink" contentScriptType="application/ecmascript" contentStyleType="text/css" height="330px" preserveAspectRatio="none" style="width:623px;height:330px;" version="1.1" viewBox="0 0 623 330" width="623px" zoomAndPan="magnify"><defs><filter height="300%" id="f4dbys79t2owf" width="300%" x="-1" y="-1"><feGaussianBlur result="blurOut" stdDeviation="2.0"/><feColorMatrix in="blurOut" result="blurOut2" type="matrix" values="0 0 0 0 0 0 0 0 0 0 0 0 0 0 0 0 0 0 .4 0"/><feOffset dx="4.0" dy="4.0" in="blurOut2" result="blurOut3"/><feBlend in="SourceGraphic" in2="blurOut3" mode="normal"/></filter></defs><g><!--cluster spl--><polygon fill="#FFFFFF" filter="url(#f4dbys79t2owf)" points="80.5,24,171.5,24,178.5,46.4883,363.5,46.4883,363.5,105,80.5,105,80.5,24" style="stroke: #000000; stroke-width: 1.5;"/><line style="stroke: #000000; stroke-width: 1.5;" x1="80.5" x2="178.5" y1="46.4883" y2="46.4883"/><text fill="#000000" font-family="sans-serif" font-size="14" font-weight="bold" lengthAdjust="spacingAndGlyphs" textLength="85" x="84.5" y="39.5352">Speed Layer</text><!--cluster batl--><polygon fill="#FFFFFF" filter="url(#f4dbys79t2owf)" points="47.5,130,135.5,130,142.5,152.4883,269.5,152.4883,269.5,317,47.5,317,47.5,130" style="stroke: #000000; stroke-width: 1.5;"/><line style="stroke: #000000; stroke-width: 1.5;" x1="47.5" x2="142.5" y1="152.4883" y2="152.4883"/><text fill="#000000" font-family="sans-serif" font-size="14" font-weight="bold" lengthAdjust="spacingAndGlyphs" textLength="82" x="51.5" y="145.5352">Batch Layer</text><!--cluster servl--><polygon fill="#FFFFFF" filter="url(#f4dbys79t2owf)" points="287.5,130,389.5,130,396.5,152.4883,554.5,152.4883,554.5,317,287.5,317,287.5,130" style="stroke: #000000; stroke-width: 1.5;"/><line style="stroke: #000000; stroke-width: 1.5;" x1="287.5" x2="396.5" y1="152.4883" y2="152.4883"/><text fill="#000000" font-family="sans-serif" font-size="14" font-weight="bold" lengthAdjust="spacingAndGlyphs" textLength="96" x="291.5" y="145.5352">Serving Layer</text><!--entity clickstream--><ellipse cx="44.5" cy="74" fill="#FEFECE" filter="url(#f4dbys79t2owf)" rx="8" ry="8" style="stroke: #A80036; stroke-width: 2.0;"/><text fill="#000000" font-family="sans-serif" font-size="14" lengthAdjust="spacingAndGlyphs" textLength="77" x="6" y="104.5352">clickstream</text><!--entity kf--><rect fill="#FEFECE" filter="url(#f4dbys79t2owf)" height="46.4883" style="stroke: #A80036; stroke-width: 1.5;" width="78" x="88.5" y="51"/><rect fill="#FEFECE" height="10" style="stroke: #A80036; stroke-width: 1.5;" width="15" x="146.5" y="56"/><rect fill="#FEFECE" height="2" style="stroke: #A80036; stroke-width: 1.5;" width="4" x="144.5" y="58"/><rect fill="#FEFECE" height="2" style="stroke: #A80036; stroke-width: 1.5;" width="4" x="144.5" y="62"/><text fill="#000000" font-family="sans-serif" font-size="14" lengthAdjust="spacingAndGlyphs" textLength="38" x="103.5" y="84.5352">Kafka</text><!--entity ss--><rect fill="#FEFECE" filter="url(#f4dbys79t2owf)" height="46.4883" style="stroke: #A80036; stroke-width: 1.5;" width="153" x="202" y="51"/><rect fill="#FEFECE" height="10" style="stroke: #A80036; stroke-width: 1.5;" width="15" x="335" y="56"/><rect fill="#FEFECE" height="2" style="stroke: #A80036; stroke-width: 1.5;" width="4" x="333" y="58"/><rect fill="#FEFECE" height="2" style="stroke: #A80036; stroke-width: 1.5;" width="4" x="333" y="62"/><text fill="#000000" font-family="sans-serif" font-size="14" lengthAdjust="spacingAndGlyphs" textLength="113" x="217" y="84.5352">Spark Streaming</text><!--entity s3--><rect fill="#FEFECE" filter="url(#f4dbys79t2owf)" height="46.4883" style="stroke: #A80036; stroke-width: 1.5;" width="91" x="56" y="157"/><rect fill="#FEFECE" height="10" style="stroke: #A80036; stroke-width: 1.5;" width="15" x="127" y="162"/><rect fill="#FEFECE" height="2" style="stroke: #A80036; stroke-width: 1.5;" width="4" x="125" y="164"/><rect fill="#FEFECE" height="2" style="stroke: #A80036; stroke-width: 1.5;" width="4" x="125" y="168"/><text fill="#000000" font-family="sans-serif" font-size="14" lengthAdjust="spacingAndGlyphs" textLength="51" x="71" y="190.5352">AWS S3</text><!--entity sp--><rect fill="#FEFECE" filter="url(#f4dbys79t2owf)" height="46.4883" style="stroke: #A80036; stroke-width: 1.5;" width="79" x="182" y="157"/><rect fill="#FEFECE" height="10" style="stroke: #A80036; stroke-width: 1.5;" width="15" x="241" y="162"/><rect fill="#FEFECE" height="2" style="stroke: #A80036; stroke-width: 1.5;" width="4" x="239" y="164"/><rect fill="#FEFECE" height="2" style="stroke: #A80036; stroke-width: 1.5;" width="4" x="239" y="168"/><text fill="#000000" font-family="sans-serif" font-size="14" lengthAdjust="spacingAndGlyphs" textLength="39" x="197" y="190.5352">Spark</text><!--entity af--><rect fill="#FEFECE" filter="url(#f4dbys79t2owf)" height="46.4883" style="stroke: #A80036; stroke-width: 1.5;" width="89" x="172" y="263"/><rect fill="#FEFECE" height="10" style="stroke: #A80036; stroke-width: 1.5;" width="15" x="241" y="268"/><rect fill="#FEFECE" height="2" style="stroke: #A80036; stroke-width: 1.5;" width="4" x="239" y="270"/><rect fill="#FEFECE" height="2" style="stroke: #A80036; stroke-width: 1.5;" width="4" x="239" y="274"/><text fill="#000000" font-family="sans-serif" font-size="14" lengthAdjust="spacingAndGlyphs" textLength="49" x="187" y="296.5352">Airflow</text><!--entity ca--><rect fill="#FEFECE" filter="url(#f4dbys79t2owf)" height="46.4883" style="stroke: #A80036; stroke-width: 1.5;" width="121" x="296" y="157"/><rect fill="#FEFECE" height="10" style="stroke: #A80036; stroke-width: 1.5;" width="15" x="397" y="162"/><rect fill="#FEFECE" height="2" style="stroke: #A80036; stroke-width: 1.5;" width="4" x="395" y="164"/><rect fill="#FEFECE" height="2" style="stroke: #A80036; stroke-width: 1.5;" width="4" x="395" y="168"/><text fill="#000000" font-family="sans-serif" font-size="14" lengthAdjust="spacingAndGlyphs" textLength="81" x="311" y="190.5352">Canssandra</text><!--entity tb--><rect fill="#FEFECE" filter="url(#f4dbys79t2owf)" height="46.4883" style="stroke: #A80036; stroke-width: 1.5;" width="95" x="296" y="263"/><rect fill="#FEFECE" height="10" style="stroke: #A80036; stroke-width: 1.5;" width="15" x="371" y="268"/><rect fill="#FEFECE" height="2" style="stroke: #A80036; stroke-width: 1.5;" width="4" x="369" y="270"/><rect fill="#FEFECE" height="2" style="stroke: #A80036; stroke-width: 1.5;" width="4" x="369" y="274"/><text fill="#000000" font-family="sans-serif" font-size="14" lengthAdjust="spacingAndGlyphs" textLength="55" x="311" y="296.5352">Tableau</text><!--entity spb--><rect fill="#FEFECE" filter="url(#f4dbys79t2owf)" height="46.4883" style="stroke: #A80036; stroke-width: 1.5;" width="120" x="426.5" y="263"/><rect fill="#FEFECE" height="10" style="stroke: #A80036; stroke-width: 1.5;" width="15" x="526.5" y="268"/><rect fill="#FEFECE" height="2" style="stroke: #A80036; stroke-width: 1.5;" width="4" x="524.5" y="270"/><rect fill="#FEFECE" height="2" style="stroke: #A80036; stroke-width: 1.5;" width="4" x="524.5" y="274"/><text fill="#000000" font-family="sans-serif" font-size="14" lengthAdjust="spacingAndGlyphs" textLength="80" x="441.5" y="296.5352">Spring Boot</text><!--entity q--><ellipse cx="590.5" cy="286" fill="#FEFECE" filter="url(#f4dbys79t2owf)" rx="8" ry="8" style="stroke: #A80036; stroke-width: 2.0;"/><text fill="#000000" font-family="sans-serif" font-size="14" lengthAdjust="spacingAndGlyphs" textLength="41" x="570" y="316.5352">Query</text><!--link kf to ss--><path d="M166.7246,74 C176.6396,74 186.5546,74 196.4695,74 " fill="none" id="kf-&gt;ss" style="stroke: #A80036; stroke-width: 1.0;"/><polygon fill="#A80036" points="201.6544,74,192.6544,70,196.6544,74,192.6544,78,201.6544,74" style="stroke: #A80036; stroke-width: 1.0;"/><!--link clickstream to kf--><path d="M53.5781,74 C63.4139,74 73.2497,74 83.0855,74 " fill="none" id="clickstream-&gt;kf" style="stroke: #A80036; stroke-width: 1.0;"/><polygon fill="#A80036" points="88.229,74,79.229,70,83.229,74,79.229,78,88.229,74" style="stroke: #A80036; stroke-width: 1.0;"/><!--link s3 to sp--><path d="M147.4375,180 C157.2099,180 166.9823,180 176.7547,180 " fill="none" id="s3-&gt;sp" style="stroke: #A80036; stroke-width: 1.0;"/><polygon fill="#A80036" points="181.865,180,172.865,176,176.865,180,172.865,184,181.865,180" style="stroke: #A80036; stroke-width: 1.0;"/><!--reverse link sp to af--><path d="M220.1731,208.1305 C219.3701,225.1538 218.3583,246.6037 217.6001,262.6784 " fill="none" id="sp&lt;-af" style="stroke: #A80036; stroke-width: 1.0;"/><polygon fill="#A80036" points="220.4151,203.0004,215.9953,211.8018,220.1794,207.9948,223.9864,212.179,220.4151,203.0004" style="stroke: #A80036; stroke-width: 1.0;"/><!--link ss to s3--><path d="M225.5851,97.094 C205.9018,106.4282 183.6979,117.8639 164.5,130 C153.455,136.9822 142.0668,145.5408 132.0621,153.5904 " fill="none" id="ss-&gt;s3" style="stroke: #A80036; stroke-width: 1.0;"/><polygon fill="#A80036" points="128.1551,156.7642,137.6627,154.1942,132.036,153.6116,132.6186,147.9848,128.1551,156.7642" style="stroke: #A80036; stroke-width: 1.0;"/><!--link ca to tb--><path d="M353.6792,203.0004 C351.7166,219.003 349.0868,240.4461 346.9918,257.528 " fill="none" id="ca-&gt;tb" style="stroke: #A80036; stroke-width: 1.0;"/><polygon fill="#A80036" points="346.3602,262.6784,351.4264,254.2325,346.969,257.7156,343.4859,253.2583,346.3602,262.6784" style="stroke: #A80036; stroke-width: 1.0;"/><!--link ca to spb--><path d="M384.7081,203.0004 C405.0952,219.6237 432.6824,242.1179 453.9947,259.4957 " fill="none" id="ca-&gt;spb" style="stroke: #A80036; stroke-width: 1.0;"/><polygon fill="#A80036" points="457.8981,262.6784,453.4509,253.8908,454.0231,259.5186,448.3952,260.0908,457.8981,262.6784" style="stroke: #A80036; stroke-width: 1.0;"/><!--link ss to ca--><path d="M295.4248,97.0004 C307.4033,113.2789 323.5245,135.1871 336.1962,152.4076 " fill="none" id="ss-&gt;ca" style="stroke: #A80036; stroke-width: 1.0;"/><polygon fill="#A80036" points="339.3388,156.6784,337.2263,147.0588,336.3754,152.6512,330.7829,151.8003,339.3388,156.6784" style="stroke: #A80036; stroke-width: 1.0;"/><!--link sp to ca--><path d="M261.0508,194.2925 C270.8934,196.3755 280.736,197.3582 290.5786,197.2406 " fill="none" id="sp-&gt;ca" style="stroke: #A80036; stroke-width: 1.0;"/><polygon fill="#A80036" points="295.7257,197.0787,286.6043,193.3638,290.7282,197.236,286.856,201.3598,295.7257,197.0787" style="stroke: #A80036; stroke-width: 1.0;"/><!--link tb to q--><path d="M370.899,262.9967 C386.325,251.5613 406.5546,238.9408 427,233 C477.3615,218.3665 497.345,211.1042 545,233 C562.4694,241.0266 575.7511,259.4368 583.3324,272.2922 " fill="none" id="tb-&gt;q" style="stroke: #A80036; stroke-width: 1.0;"/><polygon fill="#A80036" points="585.8648,276.7475,584.8951,266.9465,583.3941,272.4006,577.94,270.8996,585.8648,276.7475" style="stroke: #A80036; stroke-width: 1.0;"/><!--link spb to q--><path d="M546.625,286 C556.4521,286 566.2791,286 576.1062,286 " fill="none" id="spb-&gt;q" style="stroke: #A80036; stroke-width: 1.0;"/><polygon fill="#A80036" points="581.2451,286,572.2451,282,576.2451,286,572.2451,290,581.2451,286" style="stroke: #A80036; stroke-width: 1.0;"/><!--
@startuml

skinparam componentStyle uml2

together {

    package "Speed Layer" as spl {
        [Kafka] as kf
        [Spark Streaming] as ss
        kf -right-> ss
    }
    clickstream -right-> kf
}


package "Batch Layer" as batl {
    [AWS S3] as s3
    [Spark] as sp
    [Airflow] as af
    s3 -right-> sp
    af -up-> sp
}

ss -down-> s3

package "Serving Layer" as servl {
    [Canssandra] as ca
    [Tableau] as tb
    [Spring Boot] as spb
    ca -down-> tb
    ca -down-> spb
}


ss -right-> ca
sp -right-> ca

interface Query as q

tb -right-> q
spb -right-> q
@enduml

PlantUML version 1.2019.09(Tue Aug 27 00:19:51 SGT 2019)
(GPL source distribution)
Java Runtime: Java(TM) SE Runtime Environment
JVM: Java HotSpot(TM) 64-Bit Server VM
Java Version: 1.8.0_131-b11
Operating System: Mac OS X
OS Version: 10.14.6
Default Encoding: UTF-8
Language: en
Country: US
--></g></svg>